<?xml version="1.0" standalone="no"?>
<!DOCTYPE svg PUBLIC "-//W3C//DTD SVG 20010904//EN"
 "http://www.w3.org/TR/2001/REC-SVG-20010904/DTD/svg10.dtd">
<svg version="1.0" xmlns="http://www.w3.org/2000/svg"
 width="400.000000pt" height="400.000000pt" viewBox="0 0 400.000000 400.000000"
 preserveAspectRatio="xMidYMid meet">
<metadata>
Created by potrace 1.14, written by Peter Selinger 2001-2017
</metadata>
<g transform="translate(0.000000,400.000000) scale(0.100000,-0.100000)"
fill="#000000" stroke="none">
<path d="M864 3992 c-14 -9 -39 -54 -36 -65 1 -5 -2 -6 -7 -3 -5 4 -14 -1 -19
-10 -5 -9 -13 -14 -18 -12 -5 1 -10 -7 -12 -20 -2 -12 0 -22 5 -21 21 4 33 -2
33 -16 0 -8 3 -15 8 -15 4 0 8 -19 9 -43 2 -23 9 -46 15 -52 15 -12 23 -59 8
-50 -6 3 -10 2 -10 -4 0 -5 5 -13 11 -17 8 -5 6 -10 -5 -16 -9 -5 -13 -14 -9
-21 9 -15 12 -47 3 -42 -4 2 -8 -17 -9 -43 -1 -26 -6 -49 -11 -50 -6 -2 -7 -8
-4 -13 3 -6 2 -18 -2 -27 -4 -9 -8 -28 -9 -42 -1 -14 -5 -31 -9 -38 -4 -7 -10
-43 -12 -80 -2 -37 -6 -94 -8 -128 -2 -34 -9 -71 -15 -83 -9 -16 -9 -21 1 -21
9 0 9 -3 0 -12 -7 -7 -12 -21 -12 -33 0 -12 -5 -26 -12 -33 -11 -11 -13 -68
-5 -145 2 -21 -1 -41 -6 -44 -5 -3 -3 -9 4 -14 9 -6 10 -9 2 -9 -6 0 -12 -8
-11 -17 0 -24 -9 -60 -19 -76 -4 -6 -8 -15 -9 -19 -1 -5 -2 -9 -4 -10 -3 -5
-11 -42 -13 -65 -1 -11 -5 -19 -9 -16 -8 4 -9 2 -13 -32 -1 -12 -7 -31 -14
-43 -8 -15 -8 -22 -1 -22 7 0 8 -6 0 -19 -11 -21 -8 -353 4 -406 4 -16 8 -38
9 -47 1 -10 4 -18 7 -18 3 0 14 -23 25 -51 11 -28 26 -54 33 -56 6 -3 12 -12
12 -19 0 -8 6 -17 14 -20 7 -3 12 -17 12 -32 -1 -15 3 -33 8 -39 5 -8 4 -13
-2 -13 -7 0 -10 -63 -10 -185 0 -102 3 -185 6 -185 9 0 7 -90 -2 -112 -4 -10
-16 -20 -26 -23 -44 -14 -131 -130 -115 -154 3 -5 0 -11 -7 -13 -8 -3 -12 -39
-13 -114 -2 -112 -9 -154 -26 -154 -6 0 -8 -4 -4 -9 3 -5 1 -12 -5 -16 -6 -4
-8 -11 -5 -16 4 -5 2 -9 -4 -9 -6 0 -8 -6 -5 -13 2 -7 -4 -22 -16 -32 -11 -10
-20 -22 -20 -27 0 -13 -58 -68 -73 -69 -13 -1 -23 -3 -72 -14 -51 -12 -168
-14 -188 -3 -14 7 -17 7 -13 -1 4 -6 3 -11 -3 -11 -5 0 -11 5 -13 11 -3 10
-77 14 -123 6 -19 -4 -20 -13 -23 -305 l-2 -302 2002 0 2002 0 -30 32 c-16 18
-33 36 -39 40 -5 4 -7 8 -2 8 4 0 -1 8 -10 18 -10 10 -34 37 -53 61 -19 23
-42 51 -50 61 -8 9 -26 32 -40 51 -14 18 -33 41 -42 51 -10 10 -15 18 -12 18
3 0 -13 18 -35 40 -22 22 -40 41 -38 43 5 6 -31 46 -36 40 -4 -3 -7 -1 -7 6 0
17 -26 42 -35 33 -4 -4 -6 -2 -5 3 5 21 0 36 -10 30 -5 -3 -10 -1 -10 6 0 15
-67 89 -74 81 -3 -3 -6 1 -6 10 0 8 -10 24 -22 35 -49 44 -98 101 -98 112 0 7
-4 9 -10 6 -5 -3 -10 -2 -10 3 0 5 -27 37 -60 70 -33 34 -60 65 -60 69 -1 5
-18 22 -39 38 -21 17 -37 33 -34 38 2 4 -1 7 -7 7 -6 0 -23 14 -37 30 -13 17
-29 28 -34 24 -5 -3 -9 2 -9 10 0 9 -5 16 -11 16 -5 0 -7 4 -4 10 3 5 8 27 10
50 2 22 9 49 16 61 9 17 8 20 -3 13 -10 -6 -11 -5 -1 7 7 8 15 30 18 47 3 18
12 51 19 73 10 28 10 39 2 39 -8 0 -8 2 0 8 6 4 15 18 19 31 5 16 10 20 15 11
4 -6 10 -12 13 -11 4 0 21 -6 39 -14 18 -7 37 -10 43 -7 5 4 16 7 23 8 31 5
127 79 200 154 37 38 88 130 97 176 8 38 13 58 15 62 2 1 3 10 4 20 1 9 5 23
9 30 5 7 3 12 -5 12 -11 0 -11 2 0 9 7 4 12 12 11 17 -1 5 0 11 1 14 1 3 3 16
5 30 1 14 13 59 25 100 13 41 25 78 26 83 1 4 2 8 4 10 17 21 39 304 25 326
-3 6 -1 11 6 11 7 0 10 3 6 6 -3 3 -1 18 5 33 5 14 11 35 13 46 8 44 11 55 20
62 4 4 5 2 1 -4 -4 -7 -2 -13 3 -13 6 0 11 5 11 11 0 5 5 7 10 4 6 -3 10 -1
10 4 0 6 -4 11 -10 11 -5 0 -7 7 -4 15 4 8 0 23 -7 32 -12 14 -12 16 1 8 13
-7 13 -6 2 7 -10 13 -10 17 4 22 16 6 15 8 -2 22 -10 9 -14 13 -7 10 16 -9 26
29 14 53 -14 25 -14 64 -1 56 6 -3 10 3 10 14 0 11 -5 23 -10 26 -6 4 -7 13
-1 23 4 9 6 23 4 30 -3 6 1 12 9 12 10 0 9 3 -2 10 -13 9 -13 10 0 10 13 0 13
1 0 10 -11 7 -11 10 -2 10 9 0 10 5 4 18 -13 23 -5 65 13 75 12 6 13 13 4 29
-6 11 -7 18 -2 15 5 -3 15 -2 23 4 12 7 11 9 -5 10 -11 0 -14 3 -7 6 6 2 12
13 12 24 0 10 9 28 20 39 11 11 15 22 10 25 -6 4 -10 11 -10 16 0 6 4 8 9 5 9
-6 6 42 -3 51 -3 3 -1 14 5 24 7 14 6 19 -2 19 -8 0 -9 4 0 13 6 8 8 17 4 20
-3 4 -1 7 6 7 8 0 9 5 2 19 -6 10 -7 21 -4 25 6 6 6 64 -1 119 -2 15 1 27 6
27 5 0 6 6 1 13 -4 6 -6 20 -5 30 2 9 -3 17 -10 17 -9 0 -9 3 2 10 8 5 10 10
5 10 -6 0 -12 12 -13 27 -1 14 -9 35 -19 45 -9 10 -12 18 -7 18 5 0 4 4 -1 8
-16 10 -95 167 -95 187 0 9 -4 14 -9 10 -5 -3 -12 4 -16 15 -6 20 -12 20
-1398 20 -766 0 -1397 -4 -1403 -8z"/>
</g>
</svg>
